<svg xmlns="http://www.w3.org/2000/svg" viewBox="0 0 1080 1080" width="1080" height="1080" preserveAspectRatio="xMidYMid meet" style="width: 100%; height: 100%; transform: translate3d(0px, 0px, 0px);"><defs><clipPath id="__lottie_element_3"><rect width="1080" height="1080" x="0" y="0"></rect></clipPath><clipPath id="__lottie_element_5"><path d="M0,0 L177,0 L177,381 L0,381z"></path></clipPath><clipPath id="__lottie_element_66"><path d="M0,0 L228,0 L228,511 L0,511z"></path></clipPath><clipPath id="__lottie_element_97"><path d="M0,0 L228,0 L228,511 L0,511z"></path></clipPath><clipPath id="__lottie_element_137"><path d="M0,0 L255,0 L255,344 L0,344z"></path></clipPath><clipPath id="__lottie_element_177"><path d="M0,0 L581,0 L581,455 L0,455z"></path></clipPath></defs><g clip-path="url(#__lottie_element_3)"><g clip-path="url(#__lottie_element_177)" transform="matrix(1,0,0,1,249.5,286.5)" opacity="1" style="display: block;"><g transform="matrix(1,0,0,1,2.444000244140625,354.81201171875)" opacity="0.2" style="display: block;"><g opacity="1" transform="matrix(1,0,0,1,0,0)"><path fill="rgb(0,0,0)" fill-opacity="1" d=" M77.07499694824219,16.648000717163086 C77.07499694824219,16.648000717163086 78.92500305175781,53.64400100708008 0,99.27300262451172 C0,99.27300262451172 -0.09399999678134918,99.4739990234375 577.7559814453125,99.27300262451172 C577.7559814453125,99.27300262451172 511.7799987792969,52.4109992980957 507.4630126953125,0"></path></g></g><g transform="matrix(1,0,0,1,0.001007080078125,0)" opacity="1" style="display: block;"><g opacity="1" transform="matrix(1,0,0,1,0,0)"><path fill="rgb(230,230,230)" fill-opacity="1" d=" M507.4639892578125,345.010986328125 C507.4639892578125,345.010986328125 507.4639892578125,34.130001068115234 507.4639892578125,34.130001068115234 C515.1160278320312,32.14899826049805 520.4609985351562,25.243999481201172 520.4619750976562,17.339000701904297 C520.4619750976562,17.339000701904297 520.4619750976562,17.339000701904297 520.4619750976562,17.339000701904297 C520.4619750976562,7.763000011444092 512.698974609375,0 503.12298583984375,0 C503.12298583984375,0 503.12298583984375,0 503.12298583984375,0 C503.12298583984375,0 86.9800033569336,0 86.9800033569336,0 C77.40399932861328,0 69.64099884033203,7.763000011444092 69.64099884033203,17.339000701904297 C69.64099884033203,17.339000701904297 69.64099884033203,17.339000701904297 69.64099884033203,17.339000701904297 C69.64099884033203,17.339000701904297 69.64099884033203,17.339000701904297 69.64099884033203,17.339000701904297 C69.64099884033203,26.915000915527344 77.40399932861328,34.67900085449219 86.9800033569336,34.67900085449219 C86.9800033569336,34.67900085449219 86.9800033569336,34.67900085449219 86.9800033569336,34.67900085449219 C86.9800033569336,34.67900085449219 86.98400115966797,34.67900085449219 86.98400115966797,34.67900085449219 C86.98400115966797,34.67900085449219 77.3499984741211,345.2860107421875 77.3499984741211,345.2860107421875 C77.3499984741211,345.2860107421875 0,444.28399658203125 0,444.28399658203125 C0,444.28399658203125 -0.6499999761581421,444.2860107421875 577.7570190429688,444.28399658203125 C577.7570190429688,444.28399658203125 577.3499755859375,445.2860107421875 507.4639892578125,345.010986328125z"></path></g></g><g transform="matrix(1,0,0,1,86.98001098632812,33.92500305175781)" opacity="0.2" style="display: block;"><g opacity="1" transform="matrix(1,0,0,1,0,0)"><path fill="rgb(0,0,0)" fill-opacity="1" d=" M0,0.7540000081062317 C0,0.7540000081062317 420.4840087890625,13 420.4840087890625,13 C420.4840087890625,13 420.6659851074219,0 420.6659851074219,0 C420.6659851074219,0 0,0.7540000081062317 0,0.7540000081062317z"></path></g></g><g transform="matrix(1,0,0,1,290.1000061035156,227.08700561523438)" opacity="1" style="display: block;"></g></g><g clip-path="url(#__lottie_element_137)" transform="matrix(1,0,0,1,412.5,360)" opacity="1" style="display: block;"><g transform="matrix(1,0,0,1,127.40599822998047,333.6920166015625)" opacity="0.2" style="display: block;"><g opacity="1" transform="matrix(1,0,0,1,0,0)"><path fill="rgb(0,0,0)" fill-opacity="1" d=" M0,-9.80049991607666 C70.31536865234375,-9.80049991607666 127.40599822998047,-5.408895969390869 127.40599822998047,0 C127.40599822998047,5.408895969390869 70.31536865234375,9.80049991607666 0,9.80049991607666 C-70.31536865234375,9.80049991607666 -127.40599822998047,5.408895969390869 -127.40599822998047,0 C-127.40599822998047,-5.408895969390869 -70.31536865234375,-9.80049991607666 0,-9.80049991607666z"></path></g></g><g transform="matrix(1,0,0,1,37.579994201660156,0)" opacity="1" style="display: block;"><g opacity="1" transform="matrix(1,0,0,1,0,0)"><path fill="rgb(63,61,86)" fill-opacity="1" d=" M169.91600036621094,77.83999633789062 C169.91600036621094,77.83999633789062 169.91600036621094,116.06199645996094 169.91600036621094,116.06199645996094 C169.91400146484375,116.7969970703125 169.3179931640625,117.39299774169922 168.58299255371094,117.3949966430664 C168.58299255371094,117.3949966430664 167.63400268554688,117.3949966430664 167.63400268554688,117.3949966430664 C167.63400268554688,117.3949966430664 167.63400268554688,316.5060119628906 167.63400268554688,316.5060119628906 C167.63400268554688,327.9800109863281 158.33299255371094,337.281005859375 146.85899353027344,337.2820129394531 C146.85899353027344,337.2820129394531 22.445999145507812,337.2820129394531 22.445999145507812,337.2820129394531 C10.973999977111816,337.2799987792969 1.6749999523162842,327.9800109863281 1.6759999990463257,316.50799560546875 C1.6759999990463257,316.50799560546875 1.6759999990463257,316.5060119628906 1.6759999990463257,316.5060119628906 C1.6759999990463257,316.5060119628906 1.6759999990463257,124.37799835205078 1.6759999990463257,124.37799835205078 C1.6759999990463257,124.37799835205078 0.9900000095367432,124.37799835205078 0.9900000095367432,124.37799835205078 C0.47099998593330383,124.37899780273438 0.04899999871850014,123.95999908447266 0.04699999839067459,123.44100189208984 C0.04699999839067459,123.44100189208984 0.04699999839067459,101.68800354003906 0.04699999839067459,101.68800354003906 C0.04699999839067459,101.16799926757812 0.4690000116825104,100.74600219726562 0.9890000224113464,100.74500274658203 C0.9890000224113464,100.74500274658203 0.9900000095367432,100.74500274658203 0.9900000095367432,100.74500274658203 C0.9900000095367432,100.74500274658203 1.6759999990463257,100.74500274658203 1.6759999990463257,100.74500274658203 C1.6759999990463257,100.74500274658203 1.6759999990463257,92.552001953125 1.6759999990463257,92.552001953125 C1.6759999990463257,92.552001953125 0.984000027179718,92.552001953125 0.984000027179718,92.552001953125 C0.4390000104904175,92.55000305175781 -0.0010000000474974513,92.10700225830078 0,91.56199645996094 C0,91.56199645996094 0,70.10600280761719 0,70.10600280761719 C0.0020000000949949026,69.56400299072266 0.4410000145435333,69.1240005493164 0.984000027179718,69.12300109863281 C0.984000027179718,69.12300109863281 1.6759999990463257,69.12300109863281 1.6759999990463257,69.12300109863281 C1.6759999990463257,69.12300109863281 1.6759999990463257,57.9379997253418 1.6759999990463257,57.9379997253418 C1.6759999990463257,57.9379997253418 0.972000002861023,57.9379997253418 0.972000002861023,57.9379997253418 C0.4909999966621399,57.9379997253418 0.10000000149011612,57.54899978637695 0.0989999994635582,57.06700134277344 C0.0989999994635582,57.06700134277344 0.0989999994635582,57.064998626708984 0.0989999994635582,57.064998626708984 C0.0989999994635582,57.064998626708984 0.0989999994635582,45.35599899291992 0.0989999994635582,45.35599899291992 C0.09799999743700027,44.87300109863281 0.48899999260902405,44.47999954223633 0.972000002861023,44.47800064086914 C0.972000002861023,44.47800064086914 1.6759999990463257,44.47800064086914 1.6759999990463257,44.47800064086914 C1.6759999990463257,44.47800064086914 1.6759999990463257,20.768999099731445 1.6759999990463257,20.768999099731445 C1.6770000457763672,9.298999786376953 10.975000381469727,0 22.445999145507812,0 C22.445999145507812,0 146.85899353027344,0 146.85899353027344,0 C158.33099365234375,0 167.63099670410156,9.29800033569336 167.63400268554688,20.768999099731445 C167.63400268554688,20.768999099731445 167.63400268554688,76.50800323486328 167.63400268554688,76.50800323486328 C167.63400268554688,76.50800323486328 168.58299255371094,76.50800323486328 168.58299255371094,76.50800323486328 C169.3179931640625,76.51000213623047 169.91400146484375,77.1050033569336 169.91600036621094,77.83999633789062z"></path></g></g><g transform="matrix(1,0,0,1,118.11799621582031,13.006011962890625)" opacity="1" style="display: block;"><g opacity="1" transform="matrix(1,0,0,1,0,0)"><path fill="rgb(230,232,236)" fill-opacity="1" d=" M11.587499618530273,-0.8739999532699585 C11.587499618530273,-0.8739999532699585 11.587499618530273,0.8739999532699585 11.587499618530273,0.8739999532699585 C11.587499618530273,1.6902600526809692 10.924759864807129,2.3529999256134033 10.108499526977539,2.3529999256134033 C10.108499526977539,2.3529999256134033 -10.108499526977539,2.3529999256134033 -10.108499526977539,2.3529999256134033 C-10.924759864807129,2.3529999256134033 -11.587499618530273,1.6902600526809692 -11.587499618530273,0.8739999532699585 C-11.587499618530273,0.8739999532699585 -11.587499618530273,-0.8739999532699585 -11.587499618530273,-0.8739999532699585 C-11.587499618530273,-1.6902600526809692 -10.924759864807129,-2.3529999256134033 -10.108499526977539,-2.3529999256134033 C-10.108499526977539,-2.3529999256134033 10.108499526977539,-2.3529999256134033 10.108499526977539,-2.3529999256134033 C10.924759864807129,-2.3529999256134033 11.587499618530273,-1.6902600526809692 11.587499618530273,-0.8739999532699585z"></path></g></g><g transform="matrix(1,0,0,1,135.87899780273438,13.006011962890625)" opacity="1" style="display: block;"><g opacity="1" transform="matrix(1,0,0,1,0,0)"><path fill="rgb(230,232,236)" fill-opacity="1" d=" M0,-2.6689999103546143 C1.4730210304260254,-2.6689999103546143 2.6689999103546143,-1.4730210304260254 2.6689999103546143,0 C2.6689999103546143,1.4730210304260254 1.4730210304260254,2.6689999103546143 0,2.6689999103546143 C-1.4730210304260254,2.6689999103546143 -2.6689999103546143,1.4730210304260254 -2.6689999103546143,0 C-2.6689999103546143,-1.4730210304260254 -1.4730210304260254,-2.6689999103546143 0,-2.6689999103546143z"></path></g></g><g transform="matrix(1,0,0,1,49.81000518798828,11.697006225585938)" opacity="1" style="display: block;"><g opacity="1" transform="matrix(1,0,0,1,0,0)"><path fill="rgb(255,255,255)" fill-opacity="1" d=" M145.45599365234375,13.180999755859375 C145.45599365234375,13.180999755859375 145.45599365234375,306.5320129394531 145.45599365234375,306.5320129394531 C145.4530029296875,313.8089904785156 139.552001953125,319.7070007324219 132.27499389648438,319.7070007324219 C132.27499389648438,319.7070007324219 13.180999755859375,319.7070007324219 13.180999755859375,319.7070007324219 C5.914000034332275,319.718994140625 0.012000000104308128,313.8389892578125 0,306.5719909667969 C0,306.5719909667969 0,306.5320129394531 0,306.5320129394531 C0,306.5320129394531 0,13.180999755859375 0,13.180999755859375 C-0.0010000000474974513,5.901000022888184 5.900000095367432,0 13.180000305175781,0 C13.180000305175781,0 13.180999755859375,0 13.180999755859375,0 C13.180999755859375,0 31.006000518798828,0 31.006000518798828,0 C31.006000518798828,0 31.006000518798828,2.2869999408721924 31.006000518798828,2.2869999408721924 C31.006000518798828,8.281000137329102 35.8650016784668,13.140000343322754 41.85900115966797,13.140000343322754 C41.85900115966797,13.140000343322754 102.427001953125,13.140000343322754 102.427001953125,13.140000343322754 C108.4219970703125,13.140000343322754 113.28099822998047,8.281000137329102 113.28099822998047,2.2869999408721924 C113.28099822998047,2.2869999408721924 113.28099822998047,0 113.28099822998047,0 C113.28099822998047,0 132.27499389648438,0 132.27499389648438,0 C139.552001953125,-0.003000000026077032 145.45399475097656,5.894999980926514 145.45599365234375,13.17199993133545 C145.45599365234375,13.17199993133545 145.45599365234375,13.180999755859375 145.45599365234375,13.180999755859375z"></path></g></g><g transform="matrix(1,0,0,1,122.78099822998047,212.67599487304688)" opacity="1" style="display: block;"><g opacity="1" transform="matrix(1,0,0,1,0,0)"><path fill="rgb(230,230,230)" fill-opacity="1" d=" M60.52199935913086,-7.855999946594238 C60.52199935913086,-7.855999946594238 60.52199935913086,7.855999946594238 60.52199935913086,7.855999946594238 C60.52199935913086,7.855999946594238 -60.52199935913086,7.855999946594238 -60.52199935913086,7.855999946594238 C-60.52199935913086,7.855999946594238 -60.52199935913086,-7.855999946594238 -60.52199935913086,-7.855999946594238 C-60.52199935913086,-7.855999946594238 60.52199935913086,-7.855999946594238 60.52199935913086,-7.855999946594238z"></path></g></g><g transform="matrix(1,0,0,1,122.78099822998047,240.6090087890625)" opacity="1" style="display: block;"><g opacity="1" transform="matrix(1,0,0,1,0,0)"><path fill="rgb(230,230,230)" fill-opacity="1" d=" M60.52199935913086,-7.855999946594238 C60.52199935913086,-7.855999946594238 60.52199935913086,7.855999946594238 60.52199935913086,7.855999946594238 C60.52199935913086,7.855999946594238 -60.52199935913086,7.855999946594238 -60.52199935913086,7.855999946594238 C-60.52199935913086,7.855999946594238 -60.52199935913086,-7.855999946594238 -60.52199935913086,-7.855999946594238 C-60.52199935913086,-7.855999946594238 60.52199935913086,-7.855999946594238 60.52199935913086,-7.855999946594238z"></path></g></g><g transform="matrix(1,0,0,1,122.78099822998047,268.5419921875)" opacity="1" style="display: block;"><g opacity="1" transform="matrix(1,0,0,1,0,0)"><path fill="rgb(230,230,230)" fill-opacity="1" d=" M60.52199935913086,-7.855999946594238 C60.52199935913086,-7.855999946594238 60.52199935913086,7.855999946594238 60.52199935913086,7.855999946594238 C60.52199935913086,7.855999946594238 -60.52199935913086,7.855999946594238 -60.52199935913086,7.855999946594238 C-60.52199935913086,7.855999946594238 -60.52199935913086,-7.855999946594238 -60.52199935913086,-7.855999946594238 C-60.52199935913086,-7.855999946594238 60.52199935913086,-7.855999946594238 60.52199935913086,-7.855999946594238z"></path></g></g><g transform="matrix(1,0,0,1,122.53799438476562,132.07699584960938)" opacity="1" style="display: block;"><g opacity="1" transform="matrix(1,0,0,1,0,0)"><path fill="rgb(230,230,230)" fill-opacity="1" d=" M60.52199935913086,-40.15399932861328 C60.52199935913086,-40.15399932861328 60.52199935913086,40.15399932861328 60.52199935913086,40.15399932861328 C60.52199935913086,40.15399932861328 -60.52199935913086,40.15399932861328 -60.52199935913086,40.15399932861328 C-60.52199935913086,40.15399932861328 -60.52199935913086,-40.15399932861328 -60.52199935913086,-40.15399932861328 C-60.52199935913086,-40.15399932861328 60.52199935913086,-40.15399932861328 60.52199935913086,-40.15399932861328z"></path></g></g><g transform="matrix(1,0,0,1,122.53799438476562,171.55099487304688)" opacity="1" style="display: block;"></g><g transform="matrix(1,0,0,1,122.53799438476562,168.64100646972656)" opacity="1" style="display: block;"></g><g transform="matrix(1,0,0,1,127.40599822998047,171.74600219726562)" opacity="1" style="display: block;"></g></g><g style="display: none;"><g><path></path><path stroke-linecap="butt" stroke-linejoin="miter" fill-opacity="0" stroke-miterlimit="4"></path></g></g><g style="display: none;"><g><path></path><path stroke-linecap="butt" stroke-linejoin="miter" fill-opacity="0" stroke-miterlimit="4"></path></g></g><g style="display: none;"><g><path></path><path stroke-linecap="butt" stroke-linejoin="miter" fill-opacity="0" stroke-miterlimit="4"></path></g></g><g clip-path="url(#__lottie_element_97)" transform="matrix(1,0,0,1,78,308.5)" opacity="1" style="display: block;"><g transform="matrix(1,0,0,1,109.07699584960938,-0.0000152587890625)" opacity="1" style="display: block;"><g opacity="1" transform="matrix(1,0,0,1,0,0)"><path fill="rgb(237,28,36)" fill-opacity="1" d=" M118.05599975585938,0 C118.05599975585938,0 55.981998443603516,0.38499999046325684 55.981998443603516,0.38499999046325684 C55.981998443603516,0.38499999046325684 -46.18899917602539,54.74800109863281 25.52400016784668,167.3300018310547 C25.52400016784668,167.3300018310547 54.82600021362305,160.38999938964844 87.21199798583984,184.29400634765625 C87.21199798583984,184.29400634765625 106.10399627685547,4.241000175476074 118.05599975585938,0z"></path></g></g><g transform="matrix(1,0,0,1,124.27300262451172,0.4489898681640625)" opacity="0.2" style="display: block;"><g opacity="1" transform="matrix(1,0,0,1,0,0)"><path fill="rgb(0,0,0)" fill-opacity="1" d=" M84.3949966430664,0.11400000005960464 C73.27400207519531,46.56800079345703 60.702999114990234,166.38099670410156 60.702999114990234,166.38099670410156 C31.76799964904785,145.0240020751953 5.314000129699707,148.28599548339844 0,149.2239990234375 C3.134000062942505,155.42999267578125 6.580999851226807,161.47300720214844 10.32800006866455,167.32899475097656 C10.32800006866455,167.32899475097656 39.630001068115234,160.38900756835938 72.01599884033203,184.29400634765625 C72.01599884033203,184.29400634765625 90.90799713134766,4.241000175476074 102.86000061035156,0 C102.86000061035156,0 84.3949966430664,0.11400000005960464 84.3949966430664,0.11400000005960464z"></path></g></g><g transform="matrix(1,0,0,1,59.41800308227539,41.253997802734375)" opacity="1" style="display: block;"><g opacity="1" transform="matrix(1,0,0,1,0,0)"><path fill="rgb(63,61,86)" fill-opacity="1" d=" M74.7969970703125,16.964000701904297 C74.7969970703125,16.964000701904297 69.39900207519531,43.18199920654297 69.39900207519531,43.18199920654297 C69.39900207519531,43.18199920654297 1.565000057220459,30.851999282836914 1.565000057220459,30.851999282836914 C1.565000057220459,30.851999282836914 1.5420000553131104,30.8439998626709 1.5420000553131104,30.8439998626709 C1.5420000553131104,30.8439998626709 0,0 0,0 C0,0 13.109000205993652,0 13.109000205993652,0 C13.109000205993652,0 74.7969970703125,16.964000701904297 74.7969970703125,16.964000701904297z"></path></g></g><g transform="matrix(1,0,0,1,59.41800308227539,41.253997802734375)" opacity="0.2" style="display: block;"><g opacity="1" transform="matrix(1,0,0,1,0,0)"><path fill="rgb(0,0,0)" fill-opacity="1" d=" M12.013999938964844,0 C12.013999938964844,0 1.565000057220459,30.851999282836914 1.565000057220459,30.851999282836914 C1.565000057220459,30.851999282836914 1.5420000553131104,30.8439998626709 1.5420000553131104,30.8439998626709 C1.5420000553131104,30.8439998626709 0,0 0,0 C0,0 12.013999938964844,0 12.013999938964844,0z"></path></g></g><g transform="matrix(1,0,0,1,131.90200805664062,69.78399658203125)" opacity="1" style="display: block;"><g opacity="1" transform="matrix(1,0,0,1,0,0)"><path fill="rgb(63,61,86)" fill-opacity="1" d=" M0,-17.73550033569336 C4.255701065063477,-17.73550033569336 7.710999965667725,-9.788222312927246 7.710999965667725,0 C7.710999965667725,9.788222312927246 4.255701065063477,17.73550033569336 0,17.73550033569336 C-4.255701065063477,17.73550033569336 -7.710999965667725,9.788222312927246 -7.710999965667725,0 C-7.710999965667725,-9.788222312927246 -4.255701065063477,-17.73550033569336 0,-17.73550033569336z"></path></g></g><g transform="matrix(1,0,0,1,89.4469985961914,67.42599487304688)" opacity="1" style="display: block;"><g opacity="1" transform="matrix(1,0,0,1,0,0)"><path fill="rgb(63,61,86)" fill-opacity="1" d=" M2.3570001125335693,377.15899658203125 C1.055999994277954,377.15899658203125 0,376.10400390625 0,374.802001953125 C0,374.802001953125 0,374.802001953125 0,374.802001953125 C0,374.802001953125 0,2.3589999675750732 0,2.3589999675750732 C-0.0010000000474974513,1.0570000410079956 1.0529999732971191,0.0010000000474974513 2.3550000190734863,0 C3.6570000648498535,-0.0020000000949949026 4.7129998207092285,1.0529999732971191 4.714000225067139,2.3540000915527344 C4.714000225067139,2.3540000915527344 4.714000225067139,2.3589999675750732 4.714000225067139,2.3589999675750732 C4.714000225067139,2.3589999675750732 4.714000225067139,374.802001953125 4.714000225067139,374.802001953125 C4.714000225067139,376.10400390625 3.6589999198913574,377.15899658203125 2.3580000400543213,377.15899658203125 C2.3580000400543213,377.15899658203125 2.3570001125335693,377.15899658203125 2.3570001125335693,377.15899658203125z"></path></g></g><g transform="matrix(1,0,0,1,89.44700622558594,339.3869934082031)" opacity="1" style="display: block;"><g opacity="1" transform="matrix(1,0,0,1,0,0)"><path fill="rgb(63,61,86)" fill-opacity="1" d=" M34.74100112915039,170.74200439453125 C33.61399841308594,170.74099731445312 32.645999908447266,169.94200134277344 32.430999755859375,168.83700561523438 C32.430999755859375,168.83700561523438 0.04399999976158142,2.809000015258789 0.04399999976158142,2.809000015258789 C-0.20499999821186066,1.531000018119812 0.6290000081062317,0.2930000126361847 1.906999945640564,0.04399999976158142 C2.8459999561309814,-0.13899999856948853 3.802999973297119,0.2639999985694885 4.328999996185303,1.065000057220459 C4.328999996185303,1.065000057220459 89.9209976196289,131.6219940185547 89.9209976196289,131.6219940185547 C90.63500213623047,132.7100067138672 90.33100128173828,134.17100524902344 89.24199676513672,134.88499450683594 C88.15399932861328,135.5989990234375 86.69200134277344,135.29600524902344 85.97799682617188,134.20700073242188 C85.97799682617188,134.20700073242188 85.97799682617188,134.20700073242188 85.97799682617188,134.20700073242188 C85.97799682617188,134.20700073242188 6.968999862670898,13.692000389099121 6.968999862670898,13.692000389099121 C6.968999862670898,13.692000389099121 37.05699920654297,167.9340057373047 37.05699920654297,167.9340057373047 C37.305999755859375,169.21200561523438 36.472999572753906,170.4499969482422 35.19599914550781,170.69900512695312 C35.19599914550781,170.69900512695312 35.19499969482422,170.69900512695312 35.19499969482422,170.69900512695312 C35.04499816894531,170.72799682617188 34.893001556396484,170.74200439453125 34.74100112915039,170.74200439453125z"></path></g></g><g transform="matrix(1,0,0,1,0.001007080078125,339.6319885253906)" opacity="1" style="display: block;"><g opacity="1" transform="matrix(1,0,0,1,0,0)"><path fill="rgb(63,61,86)" fill-opacity="1" d=" M2.3540000915527344,141.19500732421875 C1.0520000457763672,141.1929931640625 -0.0020000000949949026,140.13699340820312 0,138.8350067138672 C0,138.3769989013672 0.1340000033378601,137.9290008544922 0.38499999046325684,137.54600524902344 C0.38499999046325684,137.54600524902344 89.83300018310547,1.0609999895095825 89.83300018310547,1.0609999895095825 C90.54900360107422,-0.026000000536441803 92.01100158691406,-0.3269999921321869 93.0979995727539,0.3889999985694885 C94.18099975585938,1.1030000448226929 94.48400115966797,2.558000087738037 93.7760009765625,3.6449999809265137 C93.7760009765625,3.6449999809265137 4.327000141143799,140.1300048828125 4.327000141143799,140.1300048828125 C3.8919999599456787,140.7949981689453 3.1489999294281006,141.1959991455078 2.3540000915527344,141.19500732421875z"></path></g></g><g transform="matrix(1,0,0,1,113.56700134277344,255.06399536132812)" opacity="1" style="display: block;"></g></g><g clip-path="url(#__lottie_element_66)" transform="matrix(1,0,0,1,784,310.5)" opacity="1" style="display: block;"><g transform="matrix(1,0,0,1,0,-0.0000152587890625)" opacity="1" style="display: block;"><g opacity="1" transform="matrix(1,0,0,1,0,0)"><path fill="rgb(237,28,36)" fill-opacity="1" d=" M0,0 C0,0 62.07400131225586,0.38499999046325684 62.07400131225586,0.38499999046325684 C62.07400131225586,0.38499999046325684 164.2449951171875,54.74800109863281 92.53299713134766,167.3300018310547 C92.53299713134766,167.3300018310547 63.23099899291992,160.38999938964844 30.8439998626709,184.29400634765625 C30.8439998626709,184.29400634765625 11.95199966430664,4.241000175476074 0,0z"></path></g></g><g transform="matrix(1,0,0,1,0,0.4489898681640625)" opacity="0.2" style="display: block;"><g opacity="1" transform="matrix(1,0,0,1,0,0)"><path fill="rgb(0,0,0)" fill-opacity="1" d=" M18.46500015258789,0.11400000005960464 C29.586000442504883,46.56800079345703 42.15800094604492,166.38099670410156 42.15800094604492,166.38099670410156 C71.09300231933594,145.0240020751953 97.5469970703125,148.28599548339844 102.86100006103516,149.2239990234375 C99.72599792480469,155.42999267578125 96.27899932861328,161.47300720214844 92.53299713134766,167.32899475097656 C92.53299713134766,167.32899475097656 63.23099899291992,160.38900756835938 30.8439998626709,184.29400634765625 C30.8439998626709,184.29400634765625 11.95199966430664,4.241000175476074 0,0 C0,0 18.46500015258789,0.11400000005960464 18.46500015258789,0.11400000005960464z"></path></g></g><g transform="matrix(1,0,0,1,92.91799926757812,41.253997802734375)" opacity="1" style="display: block;"><g opacity="1" transform="matrix(1,0,0,1,0,0)"><path fill="rgb(63,61,86)" fill-opacity="1" d=" M0,16.964000701904297 C0,16.964000701904297 5.3979997634887695,43.18199920654297 5.3979997634887695,43.18199920654297 C5.3979997634887695,43.18199920654297 73.23200225830078,30.851999282836914 73.23200225830078,30.851999282836914 C73.23200225830078,30.851999282836914 73.25499725341797,30.8439998626709 73.25499725341797,30.8439998626709 C73.25499725341797,30.8439998626709 74.7969970703125,0 74.7969970703125,0 C74.7969970703125,0 61.68899917602539,0 61.68899917602539,0 C61.68899917602539,0 0,16.964000701904297 0,16.964000701904297z"></path></g></g><g transform="matrix(1,0,0,1,155.7010040283203,41.253997802734375)" opacity="0.2" style="display: block;"><g opacity="1" transform="matrix(1,0,0,1,0,0)"><path fill="rgb(0,0,0)" fill-opacity="1" d=" M0,0 C0,0 10.449000358581543,30.851999282836914 10.449000358581543,30.851999282836914 C10.449000358581543,30.851999282836914 10.472000122070312,30.8439998626709 10.472000122070312,30.8439998626709 C10.472000122070312,30.8439998626709 12.013999938964844,0 12.013999938964844,0 C12.013999938964844,0 0,0 0,0z"></path></g></g><g transform="matrix(1,0,0,1,95.23200225830078,69.78399658203125)" opacity="1" style="display: block;"><g opacity="1" transform="matrix(1,0,0,1,0,0)"><path fill="rgb(63,61,86)" fill-opacity="1" d=" M0,-17.73550033569336 C4.255701065063477,-17.73550033569336 7.710999965667725,-9.788222312927246 7.710999965667725,0 C7.710999965667725,9.788222312927246 4.255701065063477,17.73550033569336 0,17.73550033569336 C-4.255701065063477,17.73550033569336 -7.710999965667725,9.788222312927246 -7.710999965667725,0 C-7.710999965667725,-9.788222312927246 -4.255701065063477,-17.73550033569336 0,-17.73550033569336z"></path></g></g><g transform="matrix(1,0,0,1,132.9720001220703,67.427001953125)" opacity="1" style="display: block;"><g opacity="1" transform="matrix(1,0,0,1,0,0)"><path fill="rgb(63,61,86)" fill-opacity="1" d=" M2.3570001125335693,377.1570129394531 C1.0549999475479126,377.1570129394531 0,376.10198974609375 0,374.79998779296875 C0,374.79998779296875 0,374.79998779296875 0,374.79998779296875 C0,374.79998779296875 0,2.3570001125335693 0,2.3570001125335693 C0,1.0549999475479126 1.0549999475479126,0 2.3570001125335693,0 C3.6589999198913574,0 4.714000225067139,1.0549999475479126 4.714000225067139,2.3570001125335693 C4.714000225067139,2.3570001125335693 4.714000225067139,374.79998779296875 4.714000225067139,374.79998779296875 C4.714000225067139,376.10198974609375 3.6589999198913574,377.1570129394531 2.3570001125335693,377.1570129394531 C2.3570001125335693,377.1570129394531 2.3570001125335693,377.1570129394531 2.3570001125335693,377.1570129394531z"></path></g></g><g transform="matrix(1,0,0,1,47.378997802734375,339.3869934082031)" opacity="1" style="display: block;"><g opacity="1" transform="matrix(1,0,0,1,0,0)"><path fill="rgb(63,61,86)" fill-opacity="1" d=" M55.56700134277344,170.74200439453125 C55.41400146484375,170.74200439453125 55.262001037597656,170.72799682617188 55.112998962402344,170.69900512695312 C53.834999084472656,170.4499969482422 53.000999450683594,169.21200561523438 53.25,167.9340057373047 C53.25,167.9340057373047 83.33699798583984,13.690999984741211 83.33699798583984,13.690999984741211 C83.33699798583984,13.690999984741211 4.328999996185303,134.20700073242188 4.328999996185303,134.20700073242188 C3.615000009536743,135.29600524902344 2.1540000438690186,135.5989990234375 1.065000057220459,134.88499450683594 C-0.024000000208616257,134.17100524902344 -0.328000009059906,132.7100067138672 0.38600000739097595,131.6219940185547 C0.38600000739097595,131.6219940185547 0.38600000739097595,131.6219940185547 0.38600000739097595,131.6219940185547 C0.38600000739097595,131.6219940185547 85.97899627685547,1.065000057220459 85.97899627685547,1.065000057220459 C86.69300079345703,-0.024000000208616257 88.15399932861328,-0.3269999921321869 89.24299621582031,0.3869999945163727 C90.04299926757812,0.9120000004768372 90.4469985961914,1.86899995803833 90.26399993896484,2.809000015258789 C90.26399993896484,2.809000015258789 57.87799835205078,168.83700561523438 57.87799835205078,168.83700561523438 C57.6609992980957,169.94200134277344 56.69300079345703,170.74099731445312 55.56700134277344,170.74200439453125z"></path></g></g><g transform="matrix(1,0,0,1,132.9720001220703,339.6269836425781)" opacity="1" style="display: block;"><g opacity="1" transform="matrix(1,0,0,1,0,0)"><path fill="rgb(63,61,86)" fill-opacity="1" d=" M91.80699920654297,141.19900512695312 C91.01100158691406,141.1999969482422 90.26899719238281,140.7989959716797 89.83399963378906,140.13400268554688 C89.83399963378906,140.13400268554688 0.38600000739097595,3.6489999294281006 0.38600000739097595,3.6489999294281006 C-0.328000009059906,2.559999942779541 -0.023000000044703484,1.0989999771118164 1.065000057220459,0.38600000739097595 C2.1540000438690186,-0.328000009059906 3.615000009536743,-0.024000000208616257 4.328000068664551,1.065000057220459 C4.328000068664551,1.065000057220459 4.328000068664551,1.065000057220459 4.328000068664551,1.065000057220459 C4.328000068664551,1.065000057220459 93.7760009765625,137.5500030517578 93.7760009765625,137.5500030517578 C94.48999786376953,138.63900756835938 94.18499755859375,140.10000610351562 93.09600067138672,140.81300354003906 C92.71299743652344,141.06399536132812 92.26499938964844,141.197998046875 91.80699920654297,141.19900512695312z"></path></g></g><g transform="matrix(1,0,0,1,113.56700134277344,255.06399536132812)" opacity="1" style="display: block;"></g></g><g clip-path="url(#__lottie_element_5)" transform="matrix(1,0,0,1,351.5,475.5)" opacity="1" style="display: block;"><g transform="matrix(1,0,0,1,103.44400024414062,42.86299133300781)" opacity="1" style="display: block;"><g opacity="1" transform="matrix(1,0,0,1,0,0)"><path fill="rgb(63,61,86)" fill-opacity="1" d=" M13.493000030517578,28.708999633789062 C13.493000030517578,28.708999633789062 30.3799991607666,24.007999420166016 30.3799991607666,24.007999420166016 C30.3799991607666,24.007999420166016 36.994998931884766,22.687000274658203 32.952999114990234,9.769000053405762 C28.91200065612793,-3.1500000953674316 20.895000457763672,0.4659999907016754 20.895000457763672,0.4659999907016754 C20.895000457763672,0.4659999907016754 5.914999961853027,4.817999839782715 5.914999961853027,4.817999839782715 C5.914999961853027,4.817999839782715 0,6.644000053405762 0,6.644000053405762 C0,6.644000053405762 8.321999549865723,18.319000244140625 8.321999549865723,18.319000244140625 C8.321999549865723,18.319000244140625 9.020000457763672,26.10099983215332 9.020000457763672,26.10099983215332 C9.020000457763672,26.10099983215332 13.493000030517578,28.708999633789062 13.493000030517578,28.708999633789062z"></path></g></g><g transform="matrix(1,0,0,1,79.00900268554688,34.83699035644531)" opacity="1" style="display: block;"><g opacity="1" transform="matrix(1,0,0,1,0,0)"><path fill="rgb(63,61,86)" fill-opacity="1" d=" M5.297999858856201,2.6019999980926514 C5.297999858856201,2.6019999980926514 0,23.766000747680664 0,23.766000747680664 C0,23.766000747680664 27.14699935913086,50.07600021362305 27.14699935913086,50.07600021362305 C27.14699935913086,50.07600021362305 29.481000900268555,50.6609992980957 29.481000900268555,50.6609992980957 C29.481000900268555,50.6609992980957 35.707000732421875,48.9119987487793 35.707000732421875,48.9119987487793 C35.707000732421875,48.9119987487793 41.00600051879883,27.749000549316406 41.00600051879883,27.749000549316406 C41.00600051879883,27.749000549316406 35.638999938964844,22.104999542236328 35.638999938964844,22.104999542236328 C35.638999938964844,22.104999542236328 41.125,20.667999267578125 41.125,20.667999267578125 C41.125,20.667999267578125 29.417999267578125,9.303000450134277 29.417999267578125,9.303000450134277 C29.417999267578125,9.303000450134277 23.30900001525879,10.585000038146973 23.30900001525879,10.585000038146973 C23.30900001525879,10.585000038146973 18.409000396728516,5.71999979019165 18.409000396728516,5.71999979019165 C18.409000396728516,5.71999979019165 21.715999603271484,4.3979997634887695 21.715999603271484,4.3979997634887695 C21.715999603271484,4.3979997634887695 22.027999877929688,3.1530001163482666 22.027999877929688,3.1530001163482666 C22.027999877929688,3.1530001163482666 18.02199935913086,0 18.02199935913086,0 C18.02199935913086,0 5.297999858856201,2.6019999980926514 5.297999858856201,2.6019999980926514z"></path></g></g><g transform="matrix(1,0,0,1,90.05500030517578,51.79798889160156)" opacity="1" style="display: block;"><g opacity="1" transform="matrix(1,0,0,1,0,0)"><path fill="rgb(237,28,36)" fill-opacity="1" d=" M19.687000274658203,15.491000175476074 C19.687000274658203,15.491000175476074 16.18000030517578,29.496000289916992 16.18000030517578,29.496000289916992 C16.18000030517578,29.496000289916992 0,14.199999809265137 0,14.199999809265137 C0,14.199999809265137 4.052000045776367,0 4.052000045776367,0 C4.052000045776367,0 19.687000274658203,15.491000175476074 19.687000274658203,15.491000175476074z"></path></g></g><g transform="matrix(1,0,0,1,83.56400299072266,34.83699035644531)" opacity="1" style="display: block;"><g opacity="1" transform="matrix(1,0,0,1,0,0)"><path stroke-linecap="butt" stroke-linejoin="miter" fill-opacity="0" stroke-miterlimit="4" stroke="rgb(63,61,86)" stroke-opacity="1" stroke-width="1" d=" M0.7429999709129333,2.6019999980926514 C0.7429999709129333,2.6019999980926514 0,5.570000171661377 0,5.570000171661377 C0,5.570000171661377 26.9950008392334,31.83099937438965 26.9950008392334,31.83099937438965 C26.9950008392334,31.83099937438965 29.32900047302246,32.415000915527344 29.32900047302246,32.415000915527344 C29.32900047302246,32.415000915527344 35.361000061035156,30.783000946044922 35.361000061035156,30.783000946044922 C35.361000061035156,30.783000946044922 35.69300079345703,30.775999069213867 35.69300079345703,30.775999069213867 C35.69300079345703,30.775999069213867 36.45100021362305,27.749000549316406 36.45100021362305,27.749000549316406 C36.45100021362305,27.749000549316406 31.083999633789062,22.104999542236328 31.083999633789062,22.104999542236328 C31.083999633789062,22.104999542236328 36.56999969482422,20.667999267578125 36.56999969482422,20.667999267578125 C36.56999969482422,20.667999267578125 24.863000869750977,9.303000450134277 24.863000869750977,9.303000450134277 C24.863000869750977,9.303000450134277 18.753999710083008,10.585000038146973 18.753999710083008,10.585000038146973 C18.753999710083008,10.585000038146973 13.854000091552734,5.71999979019165 13.854000091552734,5.71999979019165 C13.854000091552734,5.71999979019165 17.160999298095703,4.3979997634887695 17.160999298095703,4.3979997634887695 C17.160999298095703,4.3979997634887695 17.472999572753906,3.1530001163482666 17.472999572753906,3.1530001163482666 C17.472999572753906,3.1530001163482666 13.467000007629395,0 13.467000007629395,0 C13.467000007629395,0 0.7429999709129333,2.6019999980926514 0.7429999709129333,2.6019999980926514z"></path></g></g><g transform="matrix(0.24288706481456757,-0.970054566860199,0.970054566860199,0.24288706481456757,96.7770004272461,37.170989990234375)" opacity="1" style="display: block;"><g opacity="1" transform="matrix(1,0,0,1,0,0)"><path fill="rgb(237,28,36)" fill-opacity="1" d=" M0,-2.246000051498413 C0.8410956263542175,-2.246000051498413 1.5240000486373901,-1.2395673990249634 1.5240000486373901,0 C1.5240000486373901,1.2395673990249634 0.8410956263542175,2.246000051498413 0,2.246000051498413 C-0.8410956263542175,2.246000051498413 -1.5240000486373901,1.2395673990249634 -1.5240000486373901,0 C-1.5240000486373901,-1.2395673990249634 -0.8410956263542175,-2.246000051498413 0,-2.246000051498413z"></path></g></g><g transform="matrix(0.24288706481456757,-0.970054566860199,0.970054566860199,0.24288706481456757,113.927001953125,59.82099914550781)" opacity="1" style="display: block;"><g opacity="1" transform="matrix(1,0,0,1,0,0)"><path fill="rgb(237,28,36)" fill-opacity="1" d=" M0,-2.246000051498413 C0.8410956263542175,-2.246000051498413 1.5240000486373901,-1.2395673990249634 1.5240000486373901,0 C1.5240000486373901,1.2395673990249634 0.8410956263542175,2.246000051498413 0,2.246000051498413 C-0.8410956263542175,2.246000051498413 -1.5240000486373901,1.2395673990249634 -1.5240000486373901,0 C-1.5240000486373901,-1.2395673990249634 -0.8410956263542175,-2.246000051498413 0,-2.246000051498413z"></path></g></g><g transform="matrix(1,0,0,1,111.21800231933594,60.22599792480469)" opacity="1" style="display: block;"><g opacity="1" transform="matrix(1,0,0,1,0,0)"><path fill="rgb(255,182,182)" fill-opacity="1" d=" M16.940000534057617,37.70899963378906 C16.940000534057617,37.70899963378906 13.258000373840332,25.187999725341797 13.258000373840332,25.187999725341797 C13.258000373840332,25.187999725341797 22.83300018310547,2.3550000190734863 11.784000396728516,0.1459999978542328 C0.7360000014305115,-2.063999891281128 0,21.5049991607666 0,21.5049991607666 C0,21.5049991607666 4.419000148773193,35.5 4.419000148773193,35.5 C4.419000148773193,35.5 16.940000534057617,37.70899963378906 16.940000534057617,37.70899963378906z"></path></g></g><g transform="matrix(1,0,0,1,59.78400421142578,44.332000732421875)" opacity="1" style="display: block;"><g opacity="1" transform="matrix(1,0,0,1,0,0)"><path fill="rgb(255,182,182)" fill-opacity="1" d=" M0,-29.25749969482422 C16.147214889526367,-29.25749969482422 29.25749969482422,-16.147214889526367 29.25749969482422,0 C29.25749969482422,16.147214889526367 16.147214889526367,29.25749969482422 0,29.25749969482422 C-16.147214889526367,29.25749969482422 -29.25749969482422,16.147214889526367 -29.25749969482422,0 C-29.25749969482422,-16.147214889526367 -16.147214889526367,-29.25749969482422 0,-29.25749969482422z"></path></g></g><g transform="matrix(1,0,0,1,28.80500030517578,59.82099914550781)" opacity="1" style="display: block;"><g opacity="1" transform="matrix(1,0,0,1,0,0)"><path fill="rgb(255,182,182)" fill-opacity="1" d=" M40.44499969482422,5.163000106811523 C40.44499969482422,5.163000106811523 42.16600036621094,26.676000595092773 46.46799850463867,28.39699935913086 C50.770999908447266,30.118000030517578 0,42.165000915527344 0,42.165000915527344 C0,42.165000915527344 12.907999992370605,27.53700065612793 12.907999992370605,27.53700065612793 C12.907999992370605,27.53700065612793 15.489999771118164,5.163000106811523 9.465999603271484,0 C9.465999603271484,0 40.44499969482422,5.163000106811523 40.44499969482422,5.163000106811523z"></path></g></g><g transform="matrix(1,0,0,1,110.48100280761719,89.83299255371094)" opacity="1" style="display: block;"><g opacity="1" transform="matrix(1,0,0,1,0,0)"><path fill="rgb(237,28,36)" fill-opacity="1" d=" M0,1.4730000495910645 C0,1.4730000495910645 11.78499984741211,0 11.78499984741211,0 C11.78499984741211,0 25.77899932861328,7.366000175476074 25.77899932861328,16.94099998474121 C25.77899932861328,26.516000747680664 33.88100051879883,41.983001708984375 33.88100051879883,41.983001708984375 C33.88100051879883,41.983001708984375 39.77399826049805,62.60599899291992 26.516000747680664,64.0790023803711 C13.258000373840332,65.552001953125 1.4730000495910645,41.983001708984375 1.4730000495910645,41.983001708984375 C1.4730000495910645,41.983001708984375 0,1.4730000495910645 0,1.4730000495910645z"></path></g></g><g transform="matrix(1,0,0,1,16.777000427246094,185.51998901367188)" opacity="1" style="display: block;"><g opacity="1" transform="matrix(1,0,0,1,0,0)"><path fill="rgb(47,46,65)" fill-opacity="1" d=" M100.33300018310547,22.895999908447266 C100.33300018310547,22.895999908447266 126.11199951171875,-1.409000039100647 133.4770050048828,0.06400000303983688 C140.84300231933594,1.5369999408721924 155.57400512695312,3.746000051498413 155.57400512695312,14.795000076293945 C155.57400512695312,25.843000411987305 131.26800537109375,51.62200164794922 131.26800537109375,51.62200164794922 C131.26800537109375,51.62200164794922 112.85399627685547,92.13099670410156 95.177001953125,93.60399627685547 C83.54900360107422,94.65899658203125 71.99099731445312,96.38099670410156 60.560001373291016,98.76000213623047 C60.560001373291016,98.76000213623047 68.66200256347656,128.2220001220703 64.24299621582031,136.32400512695312 C59.823001861572266,144.42599487304688 42.882999420166016,154.00100708007812 41.40999984741211,153.26400756835938 C39.9370002746582,152.5279998779297 19.31399917602539,133.3780059814453 10.475000381469727,106.1259994506836 C1.6369999647140503,78.87300109863281 -4.25600004196167,58.25 3.8459999561309814,56.777000427246094 C11.947999954223633,55.30400085449219 100.33300018310547,22.895999908447266 100.33300018310547,22.895999908447266z"></path></g></g><g transform="matrix(1,0,0,1,132.10000610351562,198.09698486328125)" opacity="1" style="display: block;"><g opacity="1" transform="matrix(1,0,0,1,0,0)"><path fill="rgb(47,46,65)" fill-opacity="1" d=" M38.040000915527344,0.00800000037997961 C38.040000915527344,0.00800000037997961 43.19599914550781,-0.7289999723434448 42.45899963378906,11.793000221252441 C41.722999572753906,24.31399917602539 39.51300048828125,69.24299621582031 35.83000183105469,78.08100128173828 C32.14799880981445,86.91999816894531 31.410999298095703,97.23100280761719 32.88399887084961,100.91400146484375 C34.356998443603516,104.59700012207031 37.30400085449219,110.48899841308594 32.14799880981445,111.22599792480469 C26.992000579833984,111.96199798583984 5.631999969482422,109.01599884033203 3.4230000972747803,108.27899932861328 C1.2130000591278076,107.54299926757812 -0.996999979019165,95.02200317382812 0.47699999809265137,95.02200317382812 C1.9500000476837158,95.02200317382812 5.631999969482422,94.28500366210938 4.158999919891357,89.12899780273438 C2.686000108718872,83.9739990234375 1.9500000476837158,83.9739990234375 4.158999919891357,82.5009994506836 C6.36899995803833,81.0270004272461 12.26099967956543,78.81800079345703 10.788000106811523,77.34500122070312 C9.3149995803833,75.87200164794922 7.8420000076293945,41.25400161743164 7.8420000076293945,41.25400161743164 C7.8420000076293945,41.25400161743164 38.040000915527344,0.00800000037997961 38.040000915527344,0.00800000037997961z"></path></g></g><g transform="matrix(1,0,0,1,135.42599487304688,303.42999267578125)" opacity="1" style="display: block;"><g opacity="1" transform="matrix(1,0,0,1,0,0)"><path fill="rgb(47,46,65)" fill-opacity="1" d=" M27.349000930786133,3.683000087738037 C27.349000930786133,3.683000087738037 39.87099838256836,0 41.34400177001953,8.10200023651123 C41.34400177001953,8.10200023651123 43.553001403808594,20.62299919128418 33.97800064086914,25.042999267578125 C27.79800033569336,27.96299934387207 21.884000778198242,31.413000106811523 16.301000595092773,35.354000091552734 C16.301000595092773,35.354000091552734 0.8339999914169312,41.24700164794922 0.09799999743700027,33.88100051879883 C-0.6389999985694885,26.516000747680664 3.0429999828338623,0 3.0429999828338623,0 C3.0429999828338623,0 27.349000930786133,3.683000087738037 27.349000930786133,3.683000087738037z"></path></g></g><g transform="matrix(1,0,0,1,51.81300354003906,296.8009948730469)" opacity="1" style="display: block;"><g opacity="1" transform="matrix(1,0,0,1,0,0)"><path fill="rgb(47,46,65)" fill-opacity="1" d=" M27.732999801635742,19.150999069213867 C27.732999801635742,19.150999069213867 4.164000034332275,0 4.164000034332275,0 C4.164000034332275,0 8.583000183105469,23.56999969482422 2.690999984741211,27.98900032043457 C2.690999984741211,27.98900032043457 0,35.858001708984375 0,35.858001708984375 C0,35.858001708984375 7.5370001792907715,42.02299880981445 7.5370001792907715,42.02299880981445 C7.5370001792907715,42.02299880981445 30.68000030517578,38.30099868774414 27.732999801635742,19.150999069213867z"></path></g></g><g transform="matrix(1,0,0,1,19.19800567626953,283.38299560546875)" opacity="1" style="display: block;"><g opacity="1" transform="matrix(1,0,0,1,0,0)"><path fill="rgb(47,46,65)" fill-opacity="1" d=" M27.20400047302246,0.16099999845027924 C27.20400047302246,0.16099999845027924 42.67100143432617,4.579999923706055 40.46200180053711,20.047000885009766 C38.25199890136719,35.51499938964844 35.41899871826172,52.319000244140625 35.41899871826172,52.319000244140625 C35.41899871826172,52.319000244140625 34.56999969482422,93.70099639892578 23.520999908447266,96.64800262451172 C12.472999572753906,99.59400177001953 9.527000427246094,93.70099639892578 9.527000427246094,93.70099639892578 C9.527000427246094,93.70099639892578 -3.0309998989105225,61.36399841308594 0.6890000104904175,51.71900177001953 C5.191999912261963,40.04399871826172 11.680000305175781,26.934999465942383 9.527000427246094,22.993999481201172 C7.4079999923706055,19.114999771118164 11,-2.0490000247955322 27.20400047302246,0.16099999845027924z"></path></g></g><g transform="matrix(1,0,0,1,-0.0009918212890625,77.85299682617188)" opacity="1" style="display: block;"><g opacity="1" transform="matrix(1,0,0,1,0,0)"><path fill="rgb(237,28,36)" fill-opacity="1" d=" M37.56399917602539,2.4049999713897705 C37.56399917602539,2.4049999713897705 43.45600128173828,3.1419999599456787 53.03099822998047,4.614999771118164 C62.60599899291992,6.0879998207092285 69.23500061035156,-1.2769999504089355 74.39099884033203,0.19599999487400055 C79.5469970703125,1.6690000295639038 122.26599884033203,11.979999542236328 122.26599884033203,11.979999542236328 C122.26599884033203,11.979999542236328 115.63700103759766,62.801998138427734 115.63700103759766,62.801998138427734 C115.63700103759766,62.801998138427734 123.73899841308594,121.7249984741211 122.26599884033203,132.03700256347656 C120.79299926757812,142.34800720214844 139.9429931640625,140.875 128.89500427246094,153.39599609375 C117.84700012207031,165.91700744628906 98.6969985961914,176.96600341796875 59.65999984741211,173.2830047607422 C20.62299919128418,169.60000610351562 15.467000007629395,170.33700561523438 15.467000007629395,164.44400024414062 C15.467000007629395,158.552001953125 24.305999755859375,108.46700286865234 21.360000610351562,104.0479965209961 C18.413999557495117,99.62899780273438 12.520999908447266,94.4729995727539 15.467000007629395,89.31700134277344 C18.413999557495117,84.16100311279297 21.360000610351562,81.21499633789062 16.94099998474121,76.7959976196289 C12.520999908447266,72.37699890136719 10.312000274658203,67.95700073242188 10.312000274658203,65.74800109863281 C10.312000274658203,63.53799819946289 0,27.447999954223633 0,27.447999954223633 C0,27.447999954223633 4.419000148773193,9.770999908447266 9.574999809265137,9.034000396728516 C14.730999946594238,8.29800033569336 19.149999618530273,4.614999771118164 22.83300018310547,4.614999771118164 C26.516000747680664,4.614999771118164 28.725000381469727,5.35099983215332 30.934999465942383,4.614999771118164 C30.934999465942383,4.614999771118164 37.56399917602539,2.4049999713897705 37.56399917602539,2.4049999713897705z"></path></g></g><g transform="matrix(1,0,0,1,28.774002075195312,0.9799957275390625)" opacity="1" style="display: block;"><g opacity="1" transform="matrix(1,0,0,1,0,0)"><path fill="rgb(47,46,65)" fill-opacity="1" d=" M21.132999420166016,44.481998443603516 C21.132999420166016,44.481998443603516 2.9170000553131104,43.819000244140625 2.9170000553131104,43.819000244140625 C2.6589999198913574,38.84700012207031 3.943000078201294,33.03300094604492 11.265000343322754,32.736000061035156 C18.325000762939453,32.45000076293945 22.17799949645996,38.189998626708984 24.219999313354492,43.44499969482422 C24.219999313354492,43.44499969482422 21.132999420166016,44.481998443603516 21.132999420166016,44.481998443603516z M79.41999816894531,33.09000015258789 C79.04100036621094,31.386999130249023 77.18599700927734,25.695999145507812 73.41500091552734,24.30699920654297 C70.65599822998047,23.291000366210938 65.52200317382812,25.437999725341797 62.96500015258789,25.082000732421875 C62.96500015258789,25.082000732421875 62.6349983215332,24.145000457763672 62.6349983215332,24.145000457763672 C62.41600036621094,22.301000595092773 61.957000732421875,20.493999481201172 61.268001556396484,18.768999099731445 C58.53799819946289,11.800999641418457 53.0880012512207,6.244999885559082 46.17300033569336,3.381999969482422 C37.750999450683594,-0.1379999965429306 24.43000030517578,-3.0490000247955322 12.873000144958496,6.176000118255615 C-3.002000093460083,18.847000122070312 -0.20499999821186066,37.80799865722656 0.9490000009536743,43.069000244140625 C1.1410000324249268,43.94599914550781 1.305999994277954,44.82899856567383 1.4429999589920044,45.71799850463867 C2.1549999713897705,50.35200119018555 4.204999923706055,50.904998779296875 4.204999923706055,50.904998779296875 C4.204999923706055,50.904998779296875 4.160999774932861,50.770999908447266 4.089000225067139,50.52799987792969 C4.089000225067139,50.52799987792969 18.427000045776367,51.92399978637695 18.427000045776367,51.92399978637695 C18.427000045776367,51.92399978637695 26.179000854492188,50.60100173950195 26.179000854492188,50.60100173950195 C26.30900001525879,51.35900115966797 26.358999252319336,51.80699920654297 26.358999252319336,51.80699920654297 C48.98099899291992,48.3489990234375 62.14500045776367,36.433998107910156 64.28299713134766,34.36800003051758 C66.16200256347656,35.612998962402344 69.66200256347656,37.64799880981445 73.05599975585938,38.09400177001953 C78.0270004272461,38.74800109863281 79.79900360107422,34.79199981689453 79.41999816894531,33.09000015258789z"></path></g></g><g transform="matrix(0.9857475161552429,-0.1682313233613968,0.1682313233613968,0.9857475161552429,54.4630012512207,1.743988037109375)" opacity="1" style="display: block;"><g opacity="1" transform="matrix(1,0,0,1,0,0)"><path fill="rgb(47,46,65)" fill-opacity="1" d=" M0,-1.219499945640564 C1.7784978151321411,-1.219499945640564 3.2225000858306885,-0.6730419993400574 3.2225000858306885,0 C3.2225000858306885,0.6730419993400574 1.7784978151321411,1.219499945640564 0,1.219499945640564 C-1.7784978151321411,1.219499945640564 -3.2225000858306885,0.6730419993400574 -3.2225000858306885,0 C-3.2225000858306885,-0.6730419993400574 -1.7784978151321411,-1.219499945640564 0,-1.219499945640564z"></path></g></g><g transform="matrix(1,0,0,1,88.49500274658203,190.42799377441406)" opacity="1" style="display: block;"></g></g></g></svg>